<svg width="231.302" height="254.704" viewBox="0 0 231.302 254.704" xmlns="http://www.w3.org/2000/svg"><g id="svgGroup" stroke-linecap="round" fill-rule="evenodd" font-size="9pt" stroke="#6874e8" stroke-width="0.25mm" fill="#6874e8" style="stroke:#6874e8;stroke-width:0.25mm;fill:#6874e8"><path d="M 106.202 219.302 L 67.202 251.702 Q 64.202 254.702 57.902 254.702 L 13.802 254.702 Q 0.002 254.702 0.002 240.902 L 0.002 161.702 Q 0.002 152.402 2.852 140.552 Q 5.702 128.702 12.002 112.502 L 37.802 44.702 Q 38.702 42.002 40.052 40.052 Q 41.402 38.102 42.902 36.602 L 43.202 36.302 L 81.602 4.202 Q 86.102 0.002 94.802 0.002 L 175.502 0.002 Q 189.302 0.002 193.202 11.702 L 219.302 79.802 Q 225.602 96.002 228.452 107.852 Q 231.302 119.702 231.302 129.002 L 231.302 208.202 Q 231.302 215.702 227.102 219.302 L 188.102 251.702 Q 185.102 254.702 178.802 254.702 L 133.502 254.702 Q 118.802 254.702 118.802 240.902 L 118.802 201.902 L 110.402 201.902 L 110.402 208.202 Q 110.402 215.702 106.202 219.302 Z M 107.402 208.202 L 107.402 166.202 L 160.502 166.202 L 160.502 208.202 Q 160.502 219.002 172.202 219.002 L 217.502 219.002 Q 228.302 219.002 228.302 208.202 L 228.302 129.002 Q 228.302 120.002 225.452 108.302 Q 222.602 96.602 216.602 81.002 L 190.502 12.902 Q 187.202 3.002 175.502 3.002 L 94.802 3.002 Q 82.802 3.002 79.502 12.902 L 53.402 81.002 Q 47.402 96.602 44.552 108.302 Q 41.702 120.002 41.702 129.002 L 41.702 208.202 Q 41.702 219.002 52.502 219.002 L 96.602 219.002 Q 107.402 219.002 107.402 208.202 Z M 196.502 128.102 L 196.502 192.002 L 193.502 192.002 L 193.502 140.402 L 76.502 140.402 L 76.502 192.002 L 73.502 192.002 L 73.502 128.102 Q 73.502 119.702 74.852 112.652 Q 76.202 105.602 78.602 99.002 L 97.802 49.802 Q 101.102 41.402 105.302 35.702 Q 109.502 30.002 119.702 30.002 L 149.102 30.002 Q 159.002 30.002 163.052 35.702 Q 167.102 41.402 170.702 50.102 L 191.402 99.002 Q 193.802 105.602 195.152 112.652 Q 196.502 119.702 196.502 128.102 Z M 76.502 128.102 L 76.502 137.402 L 193.502 137.402 L 193.502 128.102 Q 193.502 120.002 192.302 113.102 Q 191.102 106.202 188.702 100.202 L 168.002 51.302 Q 164.702 43.502 161.102 38.252 Q 157.502 33.002 149.102 33.002 L 119.702 33.002 Q 110.702 33.002 107.102 38.102 Q 103.502 43.202 100.502 51.002 L 81.302 100.202 Q 79.202 106.202 77.852 113.102 Q 76.502 120.002 76.502 128.102 Z M 110.402 111.602 L 124.502 66.002 Q 126.602 60.902 130.202 60.902 L 137.702 60.902 Q 141.302 60.902 143.402 66.002 L 157.502 111.602 L 110.402 111.602 Z" vector-effect="non-scaling-stroke"/></g></svg>