<svg width="202.504" height="254.703" viewBox="0 0 202.504 254.703" xmlns="http://www.w3.org/2000/svg"><g id="svgGroup" stroke-linecap="round" fill-rule="evenodd" font-size="9pt" stroke="#6874e8" stroke-width="0.25mm" fill="#6874e8" style="stroke:#6874e8;stroke-width:0.25mm;fill:#6874e8"><path d="M 150.003 254.702 L 76.803 254.702 Q 50.403 254.702 33.453 245.402 Q 16.503 236.102 8.253 219.602 Q 0.003 203.102 0.003 181.502 L 0.003 97.202 Q 0.003 64.502 18.903 48.302 L 57.903 15.602 Q 76.203 0.002 115.503 0.002 L 188.703 0.002 Q 202.503 0.002 202.503 13.802 L 202.503 50.102 Q 202.503 57.602 198.303 61.202 L 159.303 93.602 Q 156.303 96.602 150.003 96.602 L 113.103 96.602 L 113.103 147.302 Q 113.103 153.602 117.003 156.152 Q 120.903 158.702 128.403 158.702 L 188.703 158.702 Q 202.503 158.702 202.503 172.502 L 202.503 208.202 Q 202.503 215.702 198.303 219.302 L 159.303 251.702 Q 156.303 254.702 150.003 254.702 Z M 115.503 219.002 L 188.703 219.002 Q 199.503 219.002 199.503 208.202 L 199.503 172.502 Q 199.503 161.702 188.703 161.702 L 128.403 161.702 Q 110.103 161.702 110.103 147.302 L 110.103 75.902 Q 110.103 60.902 128.403 60.902 L 188.703 60.902 Q 199.503 60.902 199.503 50.102 L 199.503 13.802 Q 199.503 3.002 188.703 3.002 L 115.503 3.002 Q 77.703 3.002 59.703 18.002 Q 41.703 33.002 41.703 64.502 L 41.703 157.802 Q 41.703 189.002 59.703 204.002 Q 77.703 219.002 115.503 219.002 Z M 172.203 189.002 L 172.203 192.002 L 122.103 192.002 Q 102.603 192.002 92.253 188.102 Q 81.903 184.202 78.003 175.652 Q 74.103 167.102 74.103 153.302 L 74.103 69.302 Q 74.103 54.902 78.153 46.352 Q 82.203 37.802 92.553 33.902 Q 102.903 30.002 122.103 30.002 L 172.203 30.002 L 172.203 33.002 L 122.103 33.002 Q 104.403 33.002 94.653 36.452 Q 84.903 39.902 81.003 47.852 Q 77.103 55.802 77.103 69.302 L 77.103 153.302 Q 77.103 166.202 80.853 174.152 Q 84.603 182.102 94.353 185.552 Q 104.103 189.002 122.103 189.002 L 172.203 189.002 Z" vector-effect="non-scaling-stroke"/></g></svg>