<svg width="205.503" height="254.704" viewBox="0 0 205.503 254.704" xmlns="http://www.w3.org/2000/svg"><g id="svgGroup" stroke-linecap="round" fill-rule="evenodd" font-size="9pt" stroke="#6874e8" stroke-width="0.25mm" fill="#6874e8" style="stroke:#6874e8;stroke-width:0.25mm;fill:#6874e8"><path d="M 52.502 219.002 L 191.702 219.002 Q 202.502 219.002 202.502 208.202 L 202.502 173.102 Q 202.502 162.302 191.702 162.302 L 108.902 162.302 L 108.902 136.502 L 167.402 136.502 Q 178.202 136.502 178.202 125.702 L 178.202 93.602 Q 178.202 82.802 167.402 82.802 L 108.902 82.802 L 108.902 59.702 L 191.702 59.702 Q 202.502 59.702 202.502 48.902 L 202.502 13.802 Q 202.502 3.002 191.702 3.002 L 52.502 3.002 Q 41.702 3.002 41.702 13.802 L 41.702 208.202 Q 41.702 219.002 52.502 219.002 Z M 153.002 254.702 L 13.802 254.702 Q 0.002 254.702 0.002 240.902 L 0.002 46.502 Q 0.002 39.002 4.202 35.402 L 42.902 2.702 Q 46.202 0.002 52.502 0.002 L 191.702 0.002 Q 205.502 0.002 205.502 13.802 L 205.502 48.902 Q 205.502 56.402 201.302 60.002 L 175.502 81.302 Q 181.202 84.302 181.202 93.602 L 181.202 125.702 Q 181.202 133.202 177.002 136.802 L 150.302 159.302 L 191.702 159.302 Q 205.502 159.302 205.502 173.102 L 205.502 208.202 Q 205.502 215.702 201.302 219.302 L 162.302 251.702 Q 159.302 254.702 153.002 254.702 Z M 77.402 189.002 L 175.502 189.002 L 175.502 192.002 L 74.402 192.002 L 74.402 30.002 L 175.502 30.002 L 175.502 33.002 L 77.402 33.002 L 77.402 108.302 L 151.202 108.302 L 151.202 111.302 L 77.402 111.302 L 77.402 189.002 Z" vector-effect="non-scaling-stroke"/></g></svg>