<svg width="219.602" height="259.203" viewBox="0 0 219.602 259.203" xmlns="http://www.w3.org/2000/svg"><g id="svgGroup" stroke-linecap="round" fill-rule="evenodd" font-size="9pt" stroke="#6874e8" stroke-width="0.25mm" fill="#6874e8" style="stroke:#6874e8;stroke-width:0.25mm;fill:#6874e8"><path d="M 216.6 162.302 L 216.6 13.802 Q 216.6 3.002 205.8 3.002 L 158.7 3.002 Q 147.9 3.002 147.9 13.802 L 147.9 150.302 Q 147.9 156.302 144.6 160.352 Q 141.3 164.402 128.1 164.402 Q 114.3 164.402 110.55 160.352 Q 106.8 156.302 106.8 150.302 L 106.8 113.702 Q 106.8 102.902 96 102.902 L 52.5 102.902 Q 41.7 102.902 41.7 113.702 L 41.7 162.302 Q 41.7 180.602 48.9 194.402 Q 56.1 208.202 75 215.852 Q 93.9 223.502 128.7 223.502 Q 164.1 223.502 183 215.852 Q 201.9 208.202 209.25 194.402 Q 216.6 180.602 216.6 162.302 Z M 0 186.002 L 0 146.402 Q 0 138.602 3.9 135.302 L 42.9 102.602 Q 46.2 99.902 52.5 99.902 L 96 99.902 Q 102.9 99.902 106.2 102.902 L 106.2 46.502 Q 106.2 39.002 110.4 35.402 L 149.1 2.702 Q 152.4 0.002 158.7 0.002 L 205.8 0.002 Q 219.6 0.002 219.6 13.802 L 219.6 162.302 Q 219.6 176.402 215.7 188.252 Q 211.8 200.102 201.3 208.502 L 162.6 241.202 Q 152.4 249.602 135 254.402 Q 117.6 259.202 90 259.202 Q 62.7 259.202 45 253.202 Q 27.3 247.202 17.55 236.852 Q 7.8 226.502 3.9 213.302 Q 0 200.102 0 186.002 Z M 180.6 30.002 L 183.6 30.002 L 183.6 155.102 Q 183.6 166.802 178.95 175.952 Q 174.3 185.102 162.45 190.352 Q 150.6 195.602 129.3 195.602 Q 106.8 195.602 94.5 190.502 Q 82.2 185.402 77.55 176.252 Q 72.9 167.102 72.9 155.102 L 72.9 131.402 L 75.9 131.402 L 75.9 155.102 Q 75.9 166.502 80.55 174.902 Q 85.2 183.302 96.9 187.952 Q 108.6 192.602 129.3 192.602 Q 149.1 192.602 160.35 187.952 Q 171.6 183.302 176.1 174.752 Q 180.6 166.202 180.6 155.102 L 180.6 30.002 Z" vector-effect="non-scaling-stroke"/></g></svg>