<svg width="229.803" height="254.704" viewBox="0 0 229.803 254.704" xmlns="http://www.w3.org/2000/svg"><g id="svgGroup" stroke-linecap="round" fill-rule="evenodd" font-size="9pt" stroke="#6874e8" stroke-width="0.25mm" fill="#6874e8" style="stroke:#6874e8;stroke-width:0.25mm;fill:#6874e8"><path d="M 108.602 219.302 L 69.602 251.702 Q 66.602 254.702 60.302 254.702 L 13.802 254.702 Q 0.002 254.702 0.002 240.902 L 0.002 46.502 Q 0.002 39.002 4.202 35.402 L 42.902 2.702 Q 46.202 0.002 52.502 0.002 L 99.002 0.002 Q 112.802 0.002 112.802 13.802 L 112.802 41.102 Q 113.702 39.602 114.602 38.402 Q 115.502 37.202 116.702 36.302 L 155.402 3.602 Q 159.902 0.002 167.702 0.002 L 213.902 0.002 Q 229.202 0.002 223.202 14.102 L 194.402 80.102 Q 210.602 82.202 220.202 93.752 Q 229.802 105.302 229.802 123.602 L 229.802 208.202 Q 229.802 215.702 225.602 219.302 L 186.602 251.702 Q 183.602 254.702 177.302 254.702 L 131.102 254.702 Q 117.302 254.702 117.302 240.902 L 117.302 182.402 Q 117.302 176.402 112.802 175.502 L 112.802 208.202 Q 112.802 215.702 108.602 219.302 Z M 52.502 219.002 L 99.002 219.002 Q 109.802 219.002 109.802 208.202 L 109.802 139.502 L 149.402 139.502 Q 159.002 139.502 159.002 149.702 L 159.002 208.202 Q 159.002 219.002 169.802 219.002 L 216.002 219.002 Q 226.802 219.002 226.802 208.202 L 226.802 123.602 Q 226.802 105.602 216.752 94.652 Q 206.702 83.702 189.902 82.802 L 220.502 12.902 Q 224.702 3.002 213.902 3.002 L 167.702 3.002 Q 156.902 3.002 152.702 12.902 L 121.802 82.802 L 109.802 82.802 L 109.802 13.802 Q 109.802 3.002 99.002 3.002 L 52.502 3.002 Q 41.702 3.002 41.702 13.802 L 41.702 208.202 Q 41.702 219.002 52.502 219.002 Z M 74.402 30.002 L 77.402 30.002 L 77.402 109.802 L 142.502 109.802 L 177.002 30.002 L 180.302 30.002 L 145.802 109.802 L 158.102 109.802 Q 176.702 109.802 185.552 116.552 Q 194.402 123.302 194.402 139.202 L 194.402 192.002 L 191.402 192.002 L 191.402 139.202 Q 191.402 124.802 183.152 118.802 Q 174.902 112.802 158.102 112.802 L 77.402 112.802 L 77.402 192.002 L 74.402 192.002 L 74.402 30.002 Z" vector-effect="non-scaling-stroke"/></g></svg>