<svg width="229.203" height="254.706" viewBox="0 0 229.203 254.706" xmlns="http://www.w3.org/2000/svg"><g id="svgGroup" stroke-linecap="round" fill-rule="evenodd" font-size="9pt" stroke="#6874e8" stroke-width="0.25mm" fill="#6874e8" style="stroke:#6874e8;stroke-width:0.25mm;fill:#6874e8"><path d="M 52.502 219.004 L 97.502 219.004 Q 108.302 219.004 108.302 208.204 L 108.302 109.204 L 159.602 171.304 L 159.602 208.204 Q 159.602 219.004 170.402 219.004 L 215.402 219.004 Q 226.202 219.004 226.202 208.204 L 226.202 13.804 Q 226.202 3.004 215.402 3.004 L 170.402 3.004 Q 159.602 3.004 159.602 13.804 L 159.602 77.704 L 101.402 11.104 Q 94.502 3.004 83.702 3.004 L 52.502 3.004 Q 41.702 3.004 41.702 13.804 L 41.702 208.204 Q 41.702 219.004 52.502 219.004 Z M 107.102 219.304 L 68.102 251.704 Q 65.102 254.704 58.802 254.704 L 13.802 254.704 Q 0.002 254.704 0.002 240.904 L 0.002 46.504 Q 0.002 39.004 4.202 35.404 L 42.902 2.704 Q 46.202 0.004 52.502 0.004 L 83.702 0.004 Q 95.702 0.004 103.802 9.004 L 124.502 33.004 L 160.802 2.704 Q 164.102 0.004 170.402 0.004 L 215.402 0.004 Q 229.202 0.004 229.202 13.804 L 229.202 208.204 Q 229.202 215.704 225.002 219.304 L 186.002 251.704 Q 183.002 254.704 176.702 254.704 L 131.702 254.704 Q 117.902 254.704 117.902 240.904 L 117.902 205.204 L 111.302 197.104 L 111.302 208.204 Q 111.302 215.704 107.102 219.304 Z M 81.302 32.404 L 191.702 156.604 L 191.702 30.004 L 194.702 30.004 L 194.702 192.004 L 191.702 192.004 L 191.702 161.104 L 78.302 33.904 Q 77.402 33.004 76.802 33.004 Q 76.202 33.004 76.202 33.904 L 76.202 192.004 L 73.202 192.004 L 73.202 33.304 Q 73.202 29.704 76.802 29.704 Q 78.602 29.704 81.302 32.404 Z" vector-effect="non-scaling-stroke"/></g></svg>