<svg width="230.102" height="259.203" viewBox="0 0 230.102 259.203" xmlns="http://www.w3.org/2000/svg"><g id="svgGroup" stroke-linecap="round" fill-rule="evenodd" font-size="9pt" stroke="#6874e8" stroke-width="0.25mm" fill="#6874e8" style="stroke:#6874e8;stroke-width:0.25mm;fill:#6874e8"><path d="M 0.001 186.002 L 0.001 46.502 Q 0.001 39.002 4.201 35.402 L 42.901 2.702 Q 46.201 0.002 52.501 0.002 L 99.601 0.002 Q 113.401 0.002 113.401 13.802 L 113.401 150.602 Q 113.401 153.302 114.301 155.402 Q 115.201 157.502 118.201 159.002 L 118.201 46.502 Q 118.201 38.702 121.801 35.702 L 122.101 35.402 L 161.101 2.702 Q 164.401 0.002 170.701 0.002 L 216.301 0.002 Q 230.101 0.002 230.101 13.802 L 230.101 162.302 Q 230.101 176.102 226.201 187.652 Q 222.301 199.202 212.101 207.902 L 173.101 240.302 Q 162.601 249.302 144.001 254.252 Q 125.401 259.202 95.701 259.202 Q 66.601 259.202 47.851 253.202 Q 29.101 247.202 18.601 236.852 Q 8.101 226.502 4.051 213.302 Q 0.001 200.102 0.001 186.002 Z M 227.101 162.302 L 227.101 13.802 Q 227.101 3.002 216.301 3.002 L 170.701 3.002 Q 159.901 3.002 159.901 13.802 L 159.901 150.602 Q 159.901 156.602 155.401 160.652 Q 150.901 164.702 135.001 164.702 Q 119.401 164.702 114.901 160.652 Q 110.401 156.602 110.401 150.602 L 110.401 13.802 Q 110.401 3.002 99.601 3.002 L 52.501 3.002 Q 41.701 3.002 41.701 13.802 L 41.701 162.302 Q 41.701 176.102 45.751 187.352 Q 49.801 198.602 60.151 206.702 Q 70.501 214.802 88.501 219.152 Q 106.501 223.502 134.401 223.502 Q 162.301 223.502 180.301 219.152 Q 198.301 214.802 208.651 206.702 Q 219.001 198.602 223.051 187.352 Q 227.101 176.102 227.101 162.302 Z M 74.701 155.102 L 74.701 30.002 L 77.701 30.002 L 77.701 155.102 Q 77.701 166.202 82.651 174.752 Q 87.601 183.302 100.051 187.952 Q 112.501 192.602 134.701 192.602 Q 157.201 192.602 169.651 187.952 Q 182.101 183.302 187.051 174.752 Q 192.001 166.202 192.001 155.102 L 192.001 30.002 L 195.001 30.002 L 195.001 155.102 Q 195.001 167.102 189.751 176.252 Q 184.501 185.402 171.451 190.502 Q 158.401 195.602 134.701 195.602 Q 111.301 195.602 98.251 190.502 Q 85.201 185.402 79.951 176.252 Q 74.701 167.102 74.701 155.102 Z" vector-effect="non-scaling-stroke"/></g></svg>